<?xml version="1.0" standalone="no"?>
<!DOCTYPE svg PUBLIC "-//W3C//DTD SVG 20010904//EN"
 "http://www.w3.org/TR/2001/REC-SVG-20010904/DTD/svg10.dtd">
<svg version="1.0" xmlns="http://www.w3.org/2000/svg"
 width="500.000000pt" height="500.000000pt" viewBox="0 0 500.000000 500.000000"
 preserveAspectRatio="xMidYMid meet">
<metadata>
Created by potrace 1.14, written by Peter Selinger 2001-2017
</metadata>
<g transform="translate(0.000000,500.000000) scale(0.100000,-0.100000)"
fill="#000000" stroke="none">
<path d="M0 2500 l0 -2500 2500 0 2500 0 0 2500 0 2500 -2500 0 -2500 0 0
-2500z m1555 1331 c133 -21 319 -60 313 -67 -2 -2 -46 3 -98 11 -182 27 -408
40 -516 28 -54 -6 -112 -17 -129 -24 l-30 -12 30 -7 c42 -11 102 -38 110 -50
4 -6 -12 -10 -42 -10 -67 0 -166 -17 -237 -41 -61 -21 -186 -87 -186 -100 0
-3 26 -9 58 -12 98 -10 102 -17 23 -42 -195 -62 -419 -262 -613 -545 -15 -22
-15 -17 2 47 50 183 123 331 219 438 33 37 34 40 14 43 -11 2 -51 -1 -87 -6
l-67 -9 28 29 c29 31 165 125 245 171 26 15 86 40 134 56 l88 28 -35 11 c-19
6 -54 14 -79 18 -40 6 -42 8 -21 15 28 11 227 47 291 53 113 10 459 -3 585
-23z m1036 -377 c20 -11 44 -38 57 -64 20 -38 23 -55 18 -111 -7 -76 -36 -168
-72 -222 -56 -84 -167 -133 -284 -125 -121 9 -180 57 -188 153 -13 161 88 339
217 380 66 21 206 15 252 -11z m-856 -41 c3 -32 9 -78 13 -103 l8 -45 54 102
55 103 153 0 c141 0 153 -1 148 -17 -3 -10 -8 -35 -12 -55 -4 -28 -11 -38 -24
-38 -15 0 -24 -23 -50 -137 -17 -76 -34 -146 -36 -155 -4 -12 0 -18 10 -18 19
0 19 -7 5 -66 l-11 -44 -130 0 -130 0 6 26 c4 15 10 39 13 55 3 18 12 29 23
29 13 0 22 23 42 112 15 62 26 114 25 115 -1 0 -44 -75 -96 -168 l-95 -169
-51 0 -52 0 -17 163 c-10 89 -19 163 -21 165 -2 2 -13 -39 -25 -90 -11 -51
-23 -101 -26 -110 -4 -12 0 -18 10 -18 19 0 19 3 5 -60 l-11 -50 -112 0 -113
0 10 51 c7 36 16 53 30 58 17 6 27 33 53 147 39 163 39 164 18 164 -10 0 -14
6 -10 18 3 9 8 34 12 55 l6 37 158 0 159 0 6 -57z m1250 5 c-7 -34 -17 -54
-28 -56 -18 -4 -31 -92 -25 -181 l3 -55 48 110 c26 60 47 112 47 117 0 4 -7 7
-15 7 -16 0 -15 3 5 80 6 25 8 25 118 28 102 2 112 1 112 -15 0 -35 -21 -93
-34 -93 -7 0 -62 -94 -122 -210 l-109 -210 -111 0 -111 0 -6 83 c-4 45 -10
139 -13 210 -6 102 -10 127 -22 127 -10 0 -12 7 -8 26 4 15 10 39 13 55 l6 29
132 0 132 0 -12 -52z m753 40 c-3 -7 -13 -52 -24 -100 l-19 -88 -77 0 -78 0 6
28 c3 15 8 35 11 45 4 14 -2 17 -36 17 -38 0 -41 -2 -50 -37 -17 -60 -14 -73
14 -73 27 0 31 -13 15 -54 -7 -20 -17 -26 -39 -26 -25 0 -30 -4 -36 -37 -3
-21 -9 -48 -12 -60 -5 -21 -2 -23 35 -23 l41 0 12 55 12 55 80 0 c59 0 78 -3
74 -12 -2 -7 -14 -57 -26 -110 l-23 -98 -230 0 -230 0 6 38 c11 59 16 70 34
74 14 4 25 37 50 144 37 158 37 164 18 164 -11 0 -12 8 -5 43 5 23 12 48 14
55 3 9 60 12 236 12 181 0 230 -3 227 -12z m-1438 -755 c0 -5 -7 -41 -17 -80
l-17 -73 -59 0 c-59 0 -59 0 -53 26 6 22 4 25 -16 22 -20 -3 -26 -16 -55 -138
-38 -164 -39 -170 -13 -170 23 0 23 4 9 -60 l-11 -50 -145 0 -145 0 6 26 c4
15 10 39 13 55 4 21 12 29 31 31 24 3 27 11 58 143 39 166 39 165 15 165 -12
0 -21 -9 -25 -25 -6 -23 -11 -25 -67 -25 -46 0 -60 3 -56 13 2 7 10 39 17 72
7 33 14 63 17 68 2 4 119 7 259 7 140 0 254 -3 254 -7z m280 -4 c0 -35 -24
-98 -39 -102 -11 -2 -21 -21 -28 -51 l-10 -46 47 0 48 0 11 44 c14 57 14 56
-5 56 -12 0 -15 6 -10 26 4 15 10 39 13 55 l6 29 128 0 c84 0 129 -4 129 -11
0 -5 -5 -30 -11 -55 -8 -31 -17 -44 -29 -44 -13 0 -23 -29 -52 -152 -32 -142
-34 -153 -17 -156 10 -2 16 -9 14 -15 -2 -7 -9 -31 -15 -54 l-11 -43 -130 0
c-110 0 -130 2 -126 14 3 8 9 31 13 52 4 23 13 38 25 41 19 5 24 15 35 76 l6
37 -45 0 c-45 0 -46 -1 -56 -37 -15 -51 -14 -73 3 -73 11 0 11 -9 1 -52 l-11
-53 -131 -3 -130 -3 10 52 c7 36 16 53 30 58 17 6 27 33 53 147 39 163 39 164
18 164 -10 0 -14 6 -10 18 3 9 8 34 12 55 l6 37 129 0 c84 0 129 -4 129 -11z
m777 -11 c-3 -13 -13 -58 -23 -100 l-18 -78 -77 0 -77 0 9 38 c12 53 13 52
-30 52 -37 0 -39 -1 -50 -44 -15 -62 -14 -66 14 -66 26 0 31 -13 19 -57 -4
-15 -15 -23 -37 -25 -32 -3 -35 -8 -50 -85 -6 -33 -6 -33 33 -33 38 0 40 2 50
43 6 23 13 48 15 55 3 8 28 12 80 12 41 0 75 -2 75 -4 0 -6 -40 -176 -46 -198
-5 -17 -25 -18 -235 -18 -126 0 -229 2 -229 5 0 2 5 27 11 55 8 39 15 50 30
50 10 0 19 3 19 6 0 8 59 264 66 287 4 11 0 17 -10 17 -19 0 -20 20 -5 73 l10
37 231 0 230 0 -5 -22z m-1891 -743 c80 -24 79 -21 57 -116 l-19 -84 -81 -3
-81 -3 1 48 c2 45 0 48 -24 51 -41 5 -55 -19 -83 -140 -32 -137 -32 -155 -6
-163 34 -11 67 19 75 65 l7 40 84 0 c82 0 84 -1 79 -22 -3 -13 -13 -54 -23
-93 l-17 -70 -55 -19 c-79 -28 -230 -28 -284 -1 -75 38 -100 102 -85 217 11
82 71 201 121 241 78 62 224 85 334 52z m2546 -7 l36 -16 -15 -61 -15 -61 -68
0 c-51 0 -69 4 -74 15 -7 20 -50 19 -66 0 -17 -20 -9 -26 64 -55 32 -13 71
-34 87 -47 80 -67 21 -233 -99 -280 -93 -36 -344 -17 -341 26 0 9 6 39 13 66
l11 50 78 3 c62 2 77 0 77 -12 0 -20 35 -30 60 -16 35 19 22 37 -46 66 -36 15
-79 40 -95 55 -25 23 -29 34 -29 80 0 97 50 165 143 195 56 18 229 13 279 -8z
m-2177 0 c-2 -7 -9 -32 -15 -55 -6 -25 -17 -43 -25 -43 -13 0 -35 -55 -35 -87
0 -9 16 -13 45 -13 42 0 44 1 54 38 15 51 14 62 -5 62 -11 0 -14 5 -10 16 3 9
9 33 12 55 l7 39 128 0 c144 0 139 3 118 -72 -6 -25 -16 -38 -27 -38 -14 0
-23 -28 -50 -143 -37 -163 -37 -167 -17 -167 16 0 15 -3 -5 -80 -6 -25 -7 -25
-138 -28 -103 -2 -131 0 -127 10 2 7 9 32 15 55 6 25 17 43 27 45 11 2 21 21
28 56 l12 52 -48 0 -47 0 -11 -50 c-14 -64 -14 -60 5 -60 11 0 14 -5 10 -16
-3 -9 -9 -33 -12 -55 l-7 -39 -129 0 -130 0 6 38 c11 59 16 70 34 74 14 4 25
37 50 144 37 158 37 164 18 164 -11 0 -12 8 -5 43 5 23 12 48 14 55 3 9 39 12
134 12 100 0 129 -3 126 -12z m705 0 c1 -118 22 -404 30 -406 13 -5 13 -27 -1
-74 l-10 -38 -135 0 -134 0 6 28 c4 15 10 38 14 52 4 15 15 26 28 28 17 3 22
10 22 33 0 28 -2 29 -45 29 -34 0 -47 -5 -55 -19 -14 -28 -12 -41 6 -41 13 0
15 -7 10 -37 -14 -78 -6 -73 -132 -73 -102 0 -114 2 -114 18 0 33 21 92 33 92
7 0 61 95 120 210 l109 210 124 0 c92 0 124 -3 124 -12z m420 1 c0 -5 -5 -30
-11 -55 -8 -31 -17 -44 -29 -44 -13 0 -23 -29 -52 -152 -32 -142 -34 -153 -17
-156 10 -2 16 -9 14 -15 -2 -7 -9 -31 -15 -54 l-11 -43 -130 0 c-119 0 -130 1
-125 18 3 9 8 34 12 55 4 27 11 37 25 37 11 0 21 9 24 23 3 12 19 80 35 150
35 150 34 137 15 137 -18 0 -18 8 -4 66 l11 44 129 0 c84 0 129 -4 129 -11z
m326 -99 c74 -175 64 -165 85 -85 23 86 23 85 3 85 -12 0 -15 6 -10 26 4 15
10 39 13 55 l6 29 114 0 c101 0 114 -2 109 -16 -3 -9 -9 -33 -12 -55 -5 -29
-11 -39 -25 -39 -11 0 -21 -9 -24 -22 -3 -13 -25 -106 -48 -208 l-43 -185 -99
0 -98 0 -61 147 c-34 81 -64 141 -67 135 -7 -13 -39 -149 -39 -166 0 -6 6 -11
14 -11 12 0 12 -9 2 -52 l-11 -53 -113 -3 c-61 -1 -112 0 -112 2 0 3 5 28 11
56 8 39 15 50 30 50 10 0 19 3 19 6 0 8 59 264 66 287 4 11 0 17 -10 17 -19 0
-20 20 -5 73 l10 38 125 -3 126 -3 44 -105z m1503 -96 c-65 -214 -196 -489
-320 -674 -66 -99 -237 -305 -268 -325 -6 -3 3 22 19 57 17 35 30 72 30 83 0
16 -7 12 -42 -22 -57 -53 -114 -91 -224 -146 -80 -40 -213 -91 -220 -85 -1 2
18 29 42 61 50 66 55 83 22 72 -13 -3 -70 -9 -128 -12 -117 -6 -299 20 -400
56 l-55 20 77 0 c42 1 129 10 195 21 230 39 419 115 537 214 36 31 66 54 66
51 0 -3 -13 -35 -30 -72 -16 -36 -30 -67 -30 -69 0 -8 55 19 114 56 76 48 180
155 224 231 l32 54 0 -52 c0 -28 -5 -64 -10 -79 -6 -15 -8 -29 -5 -32 8 -9 84
78 137 158 50 76 201 374 233 463 26 70 29 51 4 -29z"/>
<path d="M2392 3342 c-10 -10 -29 -68 -46 -141 -25 -110 -26 -125 -13 -139 22
-21 62 -8 75 25 7 16 23 77 37 137 19 82 22 112 14 122 -16 19 -46 17 -67 -4z"/>
<path d="M2328 1725 l-27 -65 30 0 29 0 0 65 c0 36 -1 65 -2 65 -2 0 -15 -29
-30 -65z"/>
</g>
</svg>
